<svg 
 xmlns="http://www.w3.org/2000/svg"
 xmlns:xlink="http://www.w3.org/1999/xlink"
 width="29px" height="30px">
<path fill-rule="evenodd"  fill="rgb(139, 144, 163)"
 d="M5.524,4.231 L5.524,2.456 C5.524,1.474 6.318,0.681 7.298,0.681 C8.278,0.681 9.072,1.474 9.072,2.456 L9.072,4.231 C9.072,5.212 8.278,6.006 7.298,6.006 C6.318,6.006 5.524,5.212 5.524,4.231 ZM17.941,6.006 C18.922,6.006 19.715,5.212 19.715,4.231 L19.715,2.456 C19.715,1.474 18.922,0.681 17.941,0.681 C16.961,0.681 16.167,1.474 16.167,2.456 L16.167,4.231 C16.167,5.212 16.961,6.006 17.941,6.006 ZM25.037,25.531 L0.203,25.531 L0.203,4.231 L4.637,4.231 C4.637,5.699 5.831,6.894 7.298,6.894 C8.765,6.894 9.959,5.699 9.959,4.231 L15.280,4.231 C15.280,5.699 16.474,6.894 17.941,6.894 C19.408,6.894 20.602,5.699 20.602,4.231 L25.037,4.231 L25.037,25.531 ZM23.263,9.556 L1.977,9.556 L1.977,23.756 L23.263,23.756 L23.263,9.556 ZM26.811,6.006 L26.811,27.306 L1.977,27.306 L1.977,29.081 L26.811,29.081 L28.585,29.081 L28.585,27.306 L28.585,6.006 L26.811,6.006 ZM9.072,11.331 L5.524,11.331 L5.524,14.881 L9.072,14.881 L9.072,11.331 ZM14.393,11.331 L10.846,11.331 L10.846,14.881 L14.393,14.881 L14.393,11.331 ZM19.715,11.331 L16.167,11.331 L16.167,14.881 L19.715,14.881 L19.715,11.331 ZM9.072,16.656 L5.524,16.656 L5.524,20.206 L9.072,20.206 L9.072,16.656 ZM14.393,16.656 L10.846,16.656 L10.846,20.206 L14.393,20.206 L14.393,16.656 ZM19.715,16.656 L16.167,16.656 L16.167,20.206 L19.715,20.206 L19.715,16.656 Z"/>
</svg>