<svg 
 xmlns="http://www.w3.org/2000/svg"
 xmlns:xlink="http://www.w3.org/1999/xlink"
 width="29px" height="29px">
<path fill-rule="evenodd"  fill="rgb(139, 144, 163)"
 d="M0.534,28.396 L14.726,28.396 L14.726,-0.007 L0.534,-0.007 L0.534,28.396 ZM9.404,3.543 L12.952,3.543 L12.952,7.094 L9.404,7.094 L9.404,3.543 ZM9.404,10.644 L12.952,10.644 L12.952,14.194 L9.404,14.194 L9.404,10.644 ZM9.404,17.745 L12.952,17.745 L12.952,21.295 L9.404,21.295 L9.404,17.745 ZM2.308,3.543 L5.856,3.543 L5.856,7.094 L2.308,7.094 L2.308,3.543 ZM2.308,10.644 L5.856,10.644 L5.856,14.194 L2.308,14.194 L2.308,10.644 ZM2.308,17.745 L5.856,17.745 L5.856,21.295 L2.308,21.295 L2.308,17.745 ZM16.500,8.869 L28.919,8.869 L28.919,10.644 L16.500,10.644 L16.500,8.869 ZM16.500,28.396 L20.048,28.396 L20.048,21.295 L25.370,21.295 L25.370,28.396 L28.919,28.396 L28.919,12.419 L16.500,12.419 L16.500,28.396 Z"/>
</svg>