<svg version="1.2" xmlns="http://www.w3.org/2000/svg" viewBox="0 0 298 29" width="298" height="29"><style>.a{fill:#f58225}</style><g style="mix-blend-mode:screen"><path fill-rule="evenodd" class="a" d="m9.6 22.5v-0.4q-0.6 0.8-1.3 1.3-0.6 0.4-1.4 0.7-0.7 0.2-1.6 0.2-1.1 0-2.1-0.5-1-0.5-1.7-1.4-0.8-0.9-1.1-2.1-0.4-1.3-0.4-2.7 0-3 1.5-4.7 1.5-1.7 3.9-1.7 1.4 0 2.3 0.4 1 0.5 1.9 1.5v-4.8q0-1 0.4-1.5 0.4-0.5 1.1-0.5 0.8 0 1.2 0.5 0.4 0.5 0.4 1.4v14.3q0 0.9-0.4 1.4-0.5 0.4-1.2 0.4-0.6 0-1.1-0.5-0.4-0.4-0.4-1.3zm-6.4-4.8q0 1.3 0.4 2.2 0.5 1 1.2 1.4 0.7 0.5 1.5 0.5 0.9 0 1.6-0.4 0.7-0.5 1.1-1.4 0.4-0.9 0.4-2.3 0-1.3-0.4-2.2-0.4-1-1.1-1.4-0.7-0.5-1.6-0.5-0.9 0-1.6 0.5-0.7 0.5-1.1 1.4-0.4 1-0.4 2.2z"/><path fill-rule="evenodd" class="a" d="m23.9 18.5h-6.3q0 1.1 0.4 2 0.4 0.8 1.2 1.2 0.7 0.5 1.6 0.5 0.5 0 1-0.2 0.5-0.1 0.9-0.4 0.5-0.3 0.9-0.6 0.4-0.4 1-0.9 0.2-0.2 0.7-0.2 0.5 0 0.8 0.2 0.3 0.3 0.3 0.8 0 0.4-0.4 1-0.3 0.6-1 1.2-0.7 0.5-1.7 0.9-1.1 0.3-2.5 0.3-3.1 0-4.8-1.8-1.7-1.7-1.7-4.8 0-1.4 0.4-2.7 0.4-1.2 1.2-2.1 0.8-0.8 2-1.3 1.2-0.5 2.7-0.5 1.9 0 3.3 0.8 1.3 0.8 2 2.1 0.7 1.3 0.7 2.6 0 1.2-0.7 1.6-0.7 0.3-2 0.3zm-6.3-1.8h5.8q-0.1-1.7-0.9-2.5-0.7-0.8-2-0.8-1.2 0-2 0.8-0.8 0.8-0.9 2.5z"/><path class="a" d="m38.7 20.1q0 1.3-0.7 2.3-0.6 0.9-1.9 1.4-1.3 0.5-3.1 0.5-1.8 0-3-0.5-1.2-0.6-1.8-1.4-0.6-0.8-0.6-1.6 0-0.5 0.3-0.9 0.4-0.4 1-0.4 0.5 0 0.8 0.3 0.3 0.2 0.5 0.7 0.5 0.9 1.2 1.3 0.7 0.4 1.9 0.4 1 0 1.6-0.4 0.6-0.5 0.6-1 0-0.9-0.6-1.3-0.7-0.3-2.2-0.7-1.6-0.4-2.7-0.9-1-0.4-1.7-1.2-0.6-0.7-0.6-1.8 0-1 0.6-1.9 0.6-0.8 1.7-1.3 1.1-0.6 2.7-0.6 1.3 0 2.3 0.3 1 0.3 1.7 0.7 0.6 0.4 1 1 0.3 0.5 0.3 1 0 0.6-0.3 0.9-0.4 0.4-1.1 0.4-0.5 0-0.8-0.3-0.4-0.3-0.8-0.8-0.4-0.5-0.9-0.8-0.5-0.3-1.4-0.3-0.8 0-1.4 0.4-0.6 0.4-0.6 0.9 0 0.5 0.4 0.8 0.5 0.4 1.2 0.6 0.7 0.2 2 0.5 1.5 0.4 2.4 0.9 1 0.5 1.5 1.2 0.5 0.7 0.5 1.6z"/><path class="a" d="m42 9.6q-0.7 0-1.2-0.4-0.5-0.4-0.5-1.2 0-0.6 0.5-1.1 0.5-0.4 1.2-0.4 0.6 0 1.1 0.4 0.5 0.4 0.5 1.1 0 0.8-0.5 1.2-0.5 0.4-1.1 0.4zm1.6 3.4v9.3q0 1-0.5 1.5-0.4 0.5-1.1 0.5-0.8 0-1.2-0.5-0.5-0.5-0.5-1.5v-9.2q0-1 0.5-1.5 0.4-0.5 1.2-0.5 0.7 0 1.1 0.5 0.5 0.5 0.5 1.4z"/><path fill-rule="evenodd" class="a" d="m57.8 13.5v9.4q0 1.6-0.4 2.8-0.3 1.2-1.1 1.9-0.7 0.8-1.9 1.2-1.3 0.3-3.1 0.3-1.7 0-3-0.4-1.3-0.5-2-1.3-0.7-0.7-0.7-1.5 0-0.6 0.4-0.9 0.4-0.4 0.9-0.4 0.7 0 1.3 0.6 0.2 0.3 0.5 0.7 0.3 0.3 0.6 0.5 0.4 0.2 0.9 0.4 0.4 0.1 1 0.1 1.3 0 2-0.4 0.7-0.3 1-1 0.3-0.6 0.3-1.3 0-0.7 0.1-2.3-0.8 1-1.8 1.6-0.9 0.5-2.3 0.5-1.6 0-2.8-0.8-1.2-0.8-1.9-2.3-0.7-1.5-0.7-3.5 0-1.5 0.4-2.6 0.4-1.2 1.2-2 0.7-0.8 1.7-1.2 0.9-0.4 2.1-0.4 1.4 0 2.4 0.5 1 0.5 1.8 1.6v-0.4q0-0.8 0.5-1.3 0.4-0.5 1-0.5 1 0 1.3 0.7 0.3 0.6 0.3 1.7zm-9.4 4.1q0 2 0.9 3 0.8 1 2.2 1 0.8 0 1.5-0.4 0.7-0.5 1.2-1.3 0.4-0.9 0.4-2.1 0-2-0.8-3.1-0.9-1.1-2.3-1.1-1.4 0-2.3 1-0.8 1.1-0.8 3z"/><path class="a" d="m62.9 12.9v0.4q0.9-1.1 1.9-1.6 1-0.6 2.3-0.6 1.3 0 2.3 0.6 1 0.6 1.5 1.6 0.4 0.6 0.5 1.3 0.1 0.6 0.1 1.7v6q0 1-0.5 1.5-0.4 0.5-1.2 0.5-0.7 0-1.1-0.5-0.5-0.5-0.5-1.5v-5.4q0-1.6-0.4-2.4-0.5-0.9-1.8-0.9-0.9 0-1.6 0.6-0.7 0.5-1 1.4-0.3 0.7-0.3 2.7v4q0 1-0.4 1.5-0.5 0.5-1.2 0.5-0.7 0-1.1-0.5-0.5-0.5-0.5-1.5v-9.3q0-0.9 0.4-1.4 0.4-0.5 1.1-0.5 0.4 0 0.8 0.2 0.3 0.2 0.5 0.6 0.2 0.5 0.2 1z"/><path fill-rule="evenodd" class="a" d="m82.7 18.5h-6.4q0 1.1 0.5 2 0.4 0.8 1.1 1.2 0.7 0.5 1.6 0.5 0.6 0 1.1-0.2 0.4-0.1 0.9-0.4 0.4-0.3 0.8-0.6 0.4-0.4 1-0.9 0.3-0.2 0.7-0.2 0.5 0 0.8 0.2 0.3 0.3 0.3 0.8 0 0.4-0.3 1-0.3 0.6-1 1.2-0.7 0.5-1.8 0.9-1 0.3-2.4 0.3-3.1 0-4.9-1.8-1.7-1.7-1.7-4.8 0-1.4 0.4-2.7 0.5-1.2 1.3-2.1 0.8-0.8 2-1.3 1.2-0.5 2.7-0.5 1.9 0 3.2 0.8 1.4 0.8 2.1 2.1 0.6 1.3 0.6 2.6 0 1.2-0.7 1.6-0.7 0.3-1.9 0.3zm-6.4-1.8h5.9q-0.1-1.7-0.9-2.5-0.8-0.8-2-0.8-1.3 0-2 0.8-0.8 0.8-1 2.5z"/><path fill-rule="evenodd" class="a" d="m95.9 22.5v-0.4q-0.7 0.8-1.3 1.3-0.7 0.4-1.4 0.7-0.7 0.2-1.6 0.2-1.2 0-2.2-0.5-1-0.5-1.7-1.4-0.7-0.9-1.1-2.1-0.4-1.3-0.4-2.7 0-3 1.5-4.7 1.5-1.7 3.9-1.7 1.4 0 2.4 0.4 1 0.5 1.9 1.5v-4.8q0-1 0.4-1.5 0.4-0.5 1.1-0.5 0.7 0 1.1 0.5 0.4 0.5 0.4 1.4v14.3q0 0.9-0.4 1.4-0.4 0.4-1.1 0.4-0.7 0-1.1-0.5-0.4-0.4-0.4-1.3zm-6.4-4.8q0 1.3 0.4 2.2 0.4 1 1.1 1.4 0.7 0.5 1.6 0.5 0.8 0 1.5-0.4 0.8-0.5 1.2-1.4 0.4-0.9 0.4-2.3 0-1.3-0.4-2.2-0.4-1-1.2-1.4-0.7-0.5-1.5-0.5-0.9 0-1.6 0.5-0.7 0.5-1.1 1.4-0.4 1-0.4 2.2z"/><path fill-rule="evenodd" class="a" d="m109.1 8.2v4.9q0.9-0.9 1.9-1.4 0.9-0.5 2.3-0.5 1.6 0 2.9 0.7 1.2 0.8 1.9 2.2 0.6 1.5 0.6 3.5 0 1.5-0.4 2.7-0.3 1.2-1 2.1-0.7 0.9-1.8 1.4-1 0.5-2.2 0.5-0.8 0-1.4-0.2-0.7-0.1-1.1-0.4-0.5-0.3-0.8-0.6-0.3-0.3-0.9-1v0.4q0 0.9-0.4 1.4-0.5 0.4-1.1 0.4-0.7 0-1.1-0.4-0.4-0.5-0.4-1.4v-14.2q0-1 0.4-1.5 0.4-0.5 1.1-0.5 0.7 0 1.1 0.5 0.4 0.5 0.4 1.4zm0.2 9.6q0 1.9 0.9 3 0.8 1 2.3 1 1.2 0 2.1-1 0.9-1.1 0.9-3.1 0-1.3-0.4-2.2-0.4-0.9-1-1.4-0.7-0.5-1.6-0.5-0.9 0-1.7 0.5-0.7 0.5-1.1 1.4-0.4 1-0.4 2.3z"/><path class="a" d="m122.9 24.7l0.3-0.7-4-10q-0.3-0.9-0.3-1.3 0-0.4 0.2-0.8 0.2-0.3 0.6-0.5 0.3-0.3 0.7-0.3 0.7 0 1.1 0.5 0.4 0.4 0.6 1.3l2.8 7.9 2.6-7.4q0.3-0.9 0.5-1.4 0.3-0.5 0.6-0.7 0.2-0.2 0.7-0.2 0.4 0 0.8 0.2 0.3 0.2 0.5 0.6 0.2 0.3 0.2 0.7-0.1 0.2-0.2 0.6-0.1 0.4-0.3 0.8l-4.2 11.1q-0.5 1.5-1 2.3-0.6 0.8-1.4 1.3-0.9 0.4-2.4 0.4-1.4 0-2.1-0.3-0.7-0.3-0.7-1.1 0-0.6 0.3-0.9 0.4-0.3 1-0.3 0.3 0 0.5 0.1 0.4 0.1 0.6 0.1 0.5 0 0.9-0.2 0.3-0.2 0.5-0.6 0.3-0.4 0.6-1.2z"/><path class="a" d="m169.9 11.4h0.8v-1q0-1.5 0.3-2.4 0.4-0.9 1.3-1.3 1-0.4 2.6-0.4 2.8 0 2.8 1.4 0 0.5-0.3 0.8-0.3 0.3-0.7 0.3-0.2 0-0.7-0.1-0.4 0-0.7-0.1-0.9 0.1-1.2 0.6-0.2 0.5-0.2 1.4v0.8h0.8q1.8 0 1.8 1.1 0 0.8-0.5 1-0.4 0.3-1.3 0.3h-0.8v8.5q0 1-0.5 1.5-0.4 0.5-1.1 0.5-0.7 0-1.2-0.5-0.4-0.5-0.4-1.5v-8.5h-0.9q-0.8 0-1.2-0.4-0.3-0.3-0.3-0.8-0.1-1.2 1.6-1.2z"/><path class="a" d="m180.5 19.6v2.7q0 1-0.5 1.5-0.4 0.5-1.1 0.5-0.8 0-1.2-0.5-0.5-0.5-0.5-1.5v-9q0-2.2 1.6-2.2 0.8 0 1.2 0.5 0.3 0.6 0.4 1.6 0.6-1 1.2-1.6 0.6-0.5 1.6-0.5 1 0 2 0.5 1 0.6 1 1.4-0.1 0.6-0.5 1-0.4 0.4-0.8 0.4-0.2 0-0.9-0.3-0.7-0.2-1.2-0.2-0.7 0-1.2 0.4-0.4 0.4-0.7 1.1-0.2 0.7-0.3 1.8-0.1 1-0.1 2.4z"/><path fill-rule="evenodd" class="a" d="m195.4 18.5h-6.4q0.1 1.1 0.5 2 0.4 0.8 1.1 1.2 0.8 0.5 1.6 0.5 0.6 0 1.1-0.2 0.5-0.1 0.9-0.4 0.5-0.3 0.9-0.6 0.3-0.4 0.9-0.9 0.3-0.2 0.8-0.2 0.5 0 0.8 0.2 0.3 0.3 0.3 0.8 0 0.4-0.4 1-0.3 0.6-1 1.2-0.7 0.5-1.8 0.9-1 0.3-2.4 0.3-3.1 0-4.8-1.8-1.8-1.7-1.8-4.8 0-1.4 0.5-2.7 0.4-1.2 1.2-2.1 0.8-0.9 2-1.3 1.2-0.5 2.7-0.5 1.9 0 3.2 0.8 1.4 0.8 2.1 2.1 0.7 1.3 0.7 2.6 0 1.2-0.7 1.6-0.7 0.3-2 0.3zm-6.4-1.8h5.9q-0.1-1.7-0.9-2.5-0.7-0.8-2-0.8-1.2 0-2 0.8-0.8 0.8-1 2.5z"/><path fill-rule="evenodd" class="a" d="m208.9 18.5h-6.4q0 1.1 0.5 2 0.4 0.8 1.1 1.2 0.7 0.5 1.6 0.5 0.6 0 1.1-0.2 0.5-0.1 0.9-0.4 0.5-0.3 0.8-0.6 0.4-0.4 1-0.9 0.3-0.2 0.7-0.2 0.5 0 0.9 0.2 0.3 0.3 0.3 0.8 0 0.4-0.4 1-0.3 0.6-1 1.2-0.7 0.5-1.8 0.9-1 0.3-2.4 0.3-3.1 0-4.8-1.8-1.8-1.7-1.8-4.8 0-1.4 0.4-2.7 0.5-1.2 1.3-2.1 0.8-0.9 2-1.3 1.2-0.5 2.7-0.5 1.9 0 3.2 0.8 1.4 0.8 2.1 2.1 0.6 1.3 0.6 2.6 0 1.2-0.7 1.6-0.7 0.3-1.9 0.3zm-6.4-1.8h5.9q-0.1-1.7-0.9-2.5-0.8-0.8-2-0.8-1.2 0-2 0.8-0.8 0.8-1 2.5z"/><path fill-rule="evenodd" class="a" d="m216 13v0.3q0.9-1.1 1.9-1.6 1-0.5 2.2-0.5 1.5 0 2.8 0.7 1.2 0.8 2 2.3 0.7 1.5 0.7 3.5 0 1.5-0.4 2.8-0.5 1.2-1.2 2.1-0.7 0.8-1.7 1.3-1 0.4-2.2 0.4-1.4 0-2.3-0.5-1-0.6-1.8-1.7v4.9q0 2.1-1.6 2.1-0.9 0-1.2-0.5-0.3-0.6-0.3-1.6v-14q0-1 0.4-1.4 0.4-0.5 1.1-0.5 0.7 0 1.1 0.5 0.5 0.5 0.5 1.4zm6.3 4.7q0-1.3-0.4-2.2-0.4-1-1-1.4-0.7-0.5-1.6-0.5-1.3 0-2.2 1-1 1.1-1 3.1 0 2 0.9 3 1 1.1 2.3 1.1 0.8 0 1.5-0.5 0.7-0.4 1.1-1.4 0.4-0.9 0.4-2.2z"/><path class="a" d="m228.9 9.6q-0.7 0-1.2-0.4-0.5-0.4-0.5-1.2 0-0.7 0.5-1.1 0.5-0.4 1.2-0.4 0.6 0 1.1 0.4 0.5 0.4 0.5 1.1 0 0.8-0.5 1.2-0.5 0.4-1.1 0.4zm1.6 3.4v9.3q0 1-0.5 1.5-0.5 0.5-1.2 0.5-0.7 0-1.1-0.5-0.5-0.5-0.5-1.5v-9.2q0-1 0.5-1.5 0.4-0.5 1.1-0.5 0.7 0 1.2 0.5 0.5 0.5 0.5 1.4z"/><path class="a" d="m240.9 22.8l-2.9-4.7-1.7 1.7v2.6q0 0.9-0.5 1.4-0.5 0.5-1.1 0.5-0.8 0-1.2-0.5-0.4-0.5-0.4-1.5v-13.8q0-1.1 0.4-1.6 0.4-0.6 1.2-0.6 0.7 0 1.1 0.5 0.5 0.5 0.5 1.5v7.9l3.6-3.8q0.7-0.7 1.1-1 0.3-0.3 0.8-0.3 0.6 0 1 0.4 0.4 0.4 0.5 1-0.1 0.7-1.4 1.9l-1.7 1.6 3.3 5.2q0.4 0.6 0.6 0.9 0.1 0.3 0.1 0.6 0 0.7-0.4 1.2-0.4 0.4-1.1 0.4-0.6 0-0.9-0.3-0.3-0.3-0.9-1.2z"/><path class="a" d="m247.9 24.3q-0.7 0-1.2-0.5-0.6-0.4-0.6-1.3 0-0.7 0.6-1.2 0.5-0.6 1.2-0.6 0.8 0 1.3 0.6 0.5 0.5 0.5 1.2 0 0.9-0.5 1.3-0.5 0.5-1.3 0.5z"/><path class="a" d="m264.1 20.3q0 0.6-0.4 1.3-0.4 0.7-1.1 1.3-0.7 0.6-1.9 1-1.1 0.4-2.5 0.4-3 0-4.7-1.8-1.7-1.7-1.7-4.7 0-2 0.8-3.5 0.8-1.5 2.2-2.4 1.5-0.8 3.5-0.8 1.3 0 2.3 0.4 1.1 0.3 1.8 0.9 0.7 0.6 1.1 1.3 0.4 0.6 0.4 1.2 0 0.6-0.4 1-0.5 0.4-1.1 0.4-0.4 0-0.7-0.2-0.2-0.2-0.5-0.7-0.6-0.9-1.3-1.3-0.6-0.5-1.6-0.5-1.5 0-2.4 1.1-0.8 1.1-0.8 3.1 0 0.9 0.2 1.7 0.2 0.7 0.6 1.3 0.5 0.5 1.1 0.8 0.6 0.3 1.3 0.3 1 0 1.7-0.5 0.7-0.4 1.2-1.3 0.3-0.6 0.6-0.9 0.4-0.3 0.9-0.3 0.6 0 1 0.4 0.4 0.5 0.4 1z"/><path fill-rule="evenodd" class="a" d="m278.1 17.7q0 1.5-0.5 2.7-0.4 1.2-1.3 2.1-0.9 0.9-2 1.3-1.2 0.5-2.7 0.5-1.5 0-2.7-0.5-1.1-0.4-2-1.3-0.9-0.9-1.3-2.1-0.4-1.2-0.4-2.7 0-1.4 0.4-2.7 0.5-1.2 1.3-2.1 0.8-0.8 2-1.3 1.2-0.5 2.7-0.5 1.5 0 2.7 0.5 1.2 0.5 2 1.4 0.9 0.8 1.3 2 0.5 1.3 0.5 2.7zm-3.3 0q0-2-0.9-3.1-0.8-1.1-2.3-1.1-1 0-1.7 0.5-0.7 0.5-1.1 1.5-0.4 0.9-0.4 2.2 0 1.3 0.4 2.2 0.4 1 1.1 1.5 0.7 0.5 1.7 0.5 1.5 0 2.3-1.1 0.9-1.1 0.9-3.1z"/><path class="a" d="m290.4 18v4.3q0 1-0.4 1.5-0.5 0.5-1.3 0.5-0.7 0-1.1-0.5-0.5-0.5-0.5-1.5v-5.2q0-1.2-0.1-1.9-0.1-0.7-0.4-1.1-0.4-0.4-1.2-0.4-1.6 0-2.1 1.1-0.5 1-0.5 3.1v4.4q0 1-0.5 1.5-0.4 0.5-1.2 0.5-0.7 0-1.2-0.5-0.4-0.5-0.4-1.5v-9.3q0-0.9 0.4-1.4 0.4-0.5 1.1-0.5 0.6 0 1.1 0.5 0.4 0.4 0.4 1.2v0.3q0.9-1 1.8-1.5 1-0.4 2.2-0.4 1.2 0 2.1 0.4 0.9 0.5 1.4 1.5 0.9-1 1.8-1.5 0.9-0.4 2.1-0.4 1.3 0 2.3 0.5 0.9 0.5 1.4 1.5 0.4 0.9 0.4 2.7v6.4q0 1-0.4 1.5-0.5 0.5-1.3 0.5-0.7 0-1.2-0.5-0.4-0.5-0.4-1.5v-5.5q0-1-0.1-1.7-0.1-0.6-0.5-1-0.4-0.4-1.2-0.4-0.6 0-1.2 0.3-0.6 0.4-0.9 1.1-0.4 0.8-0.4 2.9z"/><path class="a" d="m139.5 16.9q0 0 0 0 0 0 0 0z"/><path class="a" d="m139.6 17.1q0 0.4 0.1 0.9 0 0 0 0-0.1-0.5-0.1-0.9z"/><path class="a" d="m140.8 21q0 0 0-0.1 0 0.1 0 0.1z"/><path class="a" d="m140.7 20.8q-0.1-0.1-0.1-0.2 0 0.1 0.1 0.2z"/><path class="a" d="m140 19.1q0.2 0.8 0.6 1.5-0.4-0.7-0.6-1.5 0 0 0 0z"/><path class="a" d="m149.8 4.7c-0.9 0.1-2 0.3-3.2 0.7l-0.3-0.8c0 0 1.6-0.8 3.6-1.1l-0.1-0.6c-0.6-0.1-1.1-0.7-1.1-1.3 0-0.7 0.6-1.3 1.3-1.3 0.8 0 1.4 0.6 1.4 1.3 0 0.6-0.5 1.2-1.1 1.3l0.2 0.5c1.9-0.1 3.4 0.3 3.4 0.3l-0.2 1c-0.5-0.1-1-0.2-1.6-0.2-0.6 0-1.3 0.1-2.3 0.2z"/><path class="a" d="m139.2 12.3c-0.3 1-0.4 2.2-0.4 2.8h-1.3c0 0-0.2-1.9 0.3-3.4q0 0 0 0c0-0.1 0-0.4-0.2-0.5q-0.1-0.2-0.5-0.2c-0.5 0-0.8-0.2-1-0.4q-0.1 0-0.2 0c-0.5 0-0.9-0.4-0.9-0.8 0-0.5 0.4-0.9 0.9-0.9 0.4 0 0.8 0.4 0.8 0.9q0 0.3-0.2 0.5c0.2 0.1 0.3 0.2 0.6 0.2q0 0 0 0 0.6 0 0.9 0.3 0.1 0.1 0.2 0.2c0.7-1.6 1.7-2.5 1.7-2.6l0.6 0.5 0.4 0.3q-0.1 0-0.1 0.1c-0.1 0.1-0.9 1.2-1.6 3z"/><path class="a" d="m164.4 6.5c0 0.4-0.3 0.8-0.8 0.8q-0.3 0-0.5-0.2c-0.1 0.1-0.2 0.3-0.2 0.6q0 0.6-0.4 0.9-0.2 0.2-0.4 0.3c0.8 1.3 1.4 2.7 1.4 2.7l-1.3 0.6c-0.4-0.9-0.9-1.8-1.4-2.5q-1.1-1.5-2.1-2.5l0.9-1c0 0 1.2 0.8 2.2 2.2q0.2 0 0.4-0.2 0.2-0.2 0.2-0.5c0-0.5 0.2-0.8 0.4-1q0-0.1 0-0.2c0-0.5 0.3-0.9 0.8-0.9 0.5 0 0.8 0.4 0.8 0.9z"/><path class="a" d="m162.6 15.8c0.1 0.9 0 1.8-0.2 2.3q-0.4 1.5-1.3 2.9c-0.8 1.1-2.4 2.4-4.1 3.3-2.2 1-4.6 1.5-7 1.5-2.5 0-4.1-0.6-4.2-0.6 0 0-1.9-0.3-3.7-2.3q-0.7-0.8-1.3-1.9 0 0 0-0.1-0.1 0-0.1-0.1-0.1-0.1-0.1-0.2 0 0 0 0-0.4-0.7-0.6-1.5c0.7 0.2 1.7 0.4 3.1 0.6 1.1 0.1 2.7 0.2 4.4 0.2 1.3 0 2.8 0 4.3-0.2 3.8-0.6 6.7-1.7 8.5-2.6 1-0.5 1.8-1 2.3-1.3z"/><path fill-rule="evenodd" class="a" d="m142.3 8.7c1.2-1.1 2.8-2 4.4-2.6q1.8-0.6 3.2-0.7c0.9-0.1 1.6-0.2 2.2-0.2 0.6 0 1 0.1 1.5 0.2 1.4 0.2 4.1 1.1 6.6 4.7 0.9 1.2 1.9 3.3 2.2 4.5-0.3 0.3-1.2 0.9-2.6 1.6-1.7 0.8-4.5 1.9-8.2 2.4-5.8 0.8-11-0.4-11.9-0.6q-0.1-0.5-0.1-0.9 0-0.1-0.1-0.2 0 0 0 0 0-0.6 0-1.2c0-0.1 0-1.9 0.4-3.1 0.6-1.7 1.4-2.8 1.4-2.8 0.4-0.6 0.8-0.9 1-1.1zm12.2 2.4c0 1.2 1 2.2 2.2 2.2 1.2 0 2.1-1 2.1-2.2 0-1.2-0.9-2.2-2.1-2.2-1.2 0-2.2 1-2.2 2.2zm-11.7 1.3c0 1.9 1.6 3.5 3.6 3.5 1.9 0 3.5-1.6 3.5-3.5 0-2-1.6-3.6-3.5-3.6-2 0-3.6 1.6-3.6 3.6z"/></g></svg>