<svg version="1.2" xmlns="http://www.w3.org/2000/svg" viewBox="0 0 43 53" width="43" height="53"><style>.a{fill:#fff}</style><path fill-rule="evenodd" class="a" d="m42.9 18v21.9c0 7.3-6 13.2-13.3 13.2h-16.5c-7.3 0-13.2-5.9-13.2-13.2v-21.9h3.5v-6.8c0-6 4.9-11 11-11h14c6.1 0 11 5 11 11v6.8zm-16.1 12.8c0-3.2-3-5.8-6.4-5.2-2 0.4-3.7 2-4.1 4-0.6 2.7 0.8 5.1 3 6.1v7.8c0 1.2 0.9 2.1 2.1 2.1 1.2 0 2.2-0.9 2.2-2.1v-7.8c1.9-0.8 3.2-2.7 3.2-4.9zm6.7-19.6c0-2.7-2.3-5-5-5h-14.1c-2.7 0-5 2.3-5 5v6.8h24.1z"/></svg>