<svg version="1.2" xmlns="http://www.w3.org/2000/svg" viewBox="0 0 60 49" width="60" height="49"><style>.a{fill:#c4c4c4}</style><path fill-rule="evenodd" class="a" d="m29.6 42.4c-11.9 0-23-6.4-29-16.7l-0.6-1 0.6-1c6-10.4 17.1-16.8 29-16.8 11.9 0 23 6.4 29 16.8l0.6 1-0.6 1c-6 10.3-17.1 16.7-29 16.7zm-25-17.7c5.4 8.5 14.9 13.7 25 13.7 10.1 0 19.5-5.2 24.9-13.7-5.4-8.5-14.8-13.8-24.9-13.8-10.1 0-19.6 5.3-25 13.8z"/><path fill-rule="evenodd" class="a" d="m29.6 42.4c-9.8 0-17.8-7.9-17.8-17.7 0-9.8 8-17.8 17.8-17.8 9.8 0 17.7 8 17.7 17.8 0 9.8-7.9 17.7-17.7 17.7zm0-31.5c-7.6 0-13.8 6.2-13.8 13.8 0 7.6 6.2 13.7 13.8 13.7 7.6 0 13.7-6.1 13.7-13.7 0-7.6-6.1-13.8-13.7-13.8z"/><path class="a" d="m8.5 48.6l-2.8-2.9 45-44.9 2.8 2.8z"/></svg>